# xmcd
#
# Track frame offsets:
#  150
#  11753
#  21283
#  31103
#  43349
#  54411
#  63884
#  76102
#  87025
#  99474
#  108461
#  117975
#
# Disc length: 1723 seconds
#
# Revision: 0
# Processed by: cddbd v1.5.1PL2 Copyright (c) Steve Scherf et al.
# Submitted via: Collectorz.com_Music_Collector 6.9
#
DISCID=8c06b90c
DTITLE=Varouis - Battling Banjos
DYEAR=1975
DGENRE=Country
TTITLE0=01 Battling Banjo Polka - 01 Battling Banjo Polka
TTITLE1=02 Chicken Strut - 02 Chicken Strut
TTITLE2=03 Down Yonder - 03 Down Yonder
TTITLE3=04 Nine String Boogie - 04 Nine String Boogie
TTITLE4=05 Blue Moon Waltz - 05 Blue Moon Waltz
TTITLE5=06 Just Joshin - 06 Just Joshin'
TTITLE6=07 Feudin - Banjos
TTITLE7=08 Black Mountain Rag - 08 Black Mountain Rag
TTITLE8=09 Banjo Buster - 09 Banjo Buster
TTITLE9=10 Foggy Mountain Breakdown - 10 Foggy Mountain Breakdown
TTITLE10=11 Georgia Camp Meeting - 11 Georgia Camp Meeting
TTITLE11=12 Ringing Banjos - 12 Ringing Banjos
EXTD=
EXTT0=
EXTT1=
EXTT2=
EXTT3=
EXTT4=
EXTT5=
EXTT6=
EXTT7=
EXTT8=
EXTT9=
EXTT10=
EXTT11=
PLAYORDER=
